<svg width="21" height="13" viewBox="0 0 21 13" fill="none" xmlns="http://www.w3.org/2000/svg">
<path fill-rule="evenodd" clip-rule="evenodd" d="M0.320068 1.63166C0.402013 1.27954 0.52395 0.939503 0.851728 0.761024C1.06933 0.642978 1.31869 0.527349 1.55747 0.519292C2.39574 0.490284 3.23596 0.49955 4.0754 0.511234C4.63137 0.519292 5.00855 0.817428 5.24262 1.33232C5.30185 1.46282 5.36028 1.59388 5.41871 1.72497C5.63377 2.20738 5.849 2.69018 6.1052 3.14733C6.32961 3.54298 6.59626 3.91351 6.86265 4.28369C6.9565 4.41411 7.05032 4.54448 7.14225 4.67588C7.16584 4.70977 7.21016 4.72821 7.2545 4.74666V4.74666C7.28731 4.76031 7.32792 4.74666 7.34627 4.71624V4.71624C7.37104 4.67518 7.39578 4.63417 7.39631 4.5941C7.40298 4.1058 7.40415 3.6175 7.39631 3.1296V1.06359C7.37749 0.620416 7.70212 0.508414 7.87151 0.508414C8.94555 0.505191 10.0195 0.505191 11.0932 0.508414C11.8672 0.51204 12.3894 1.04506 12.3961 1.84479C12.4007 2.4034 12.3999 2.96201 12.3991 3.52061C12.3985 3.91161 12.398 4.30261 12.3992 4.69361C12.3992 5.04735 12.6157 5.2778 12.8956 5.19198C13.0274 5.15169 13.1603 5.02196 13.2363 4.89667C13.9632 3.7009 14.687 2.50432 15.3928 1.29364C15.7107 0.741283 16.142 0.482629 16.7682 0.501967C17.3139 0.518583 17.8605 0.51444 18.407 0.510298C18.6026 0.508815 18.7981 0.507333 18.9936 0.506802C19.5218 0.506802 19.9311 0.723959 20.1742 1.20944C20.4173 1.69492 20.3463 2.16549 20.0377 2.60424C19.2151 3.77476 18.3931 4.94568 17.5716 6.11701C17.3434 6.44214 17.3434 6.56019 17.5716 6.88693C18.3936 8.05772 19.2157 9.22865 20.0377 10.3997C20.5294 11.1036 20.3369 12.0113 19.6111 12.3545C19.415 12.4425 19.2037 12.4891 18.9897 12.4915C18.4711 12.502 17.9522 12.5004 17.4332 12.4988C17.1776 12.4981 16.9219 12.4973 16.6662 12.4979C16.184 12.4979 15.8037 12.3029 15.508 11.9097C14.9746 11.2037 14.4374 10.5008 13.9001 9.79769L13.9 9.79752L13.8995 9.79687C13.6815 9.51162 13.4635 9.22636 13.2457 8.94085L13.174 8.84577C13.0505 8.68462 12.8917 8.61048 12.6933 8.66649C12.5149 8.71685 12.4028 8.88203 12.3985 9.1149C12.3947 9.3204 12.3952 9.52499 12.3957 9.72941V9.72947C12.3961 9.88572 12.3965 10.0419 12.3949 10.1983C12.3947 10.2137 12.3946 10.2291 12.3945 10.2445C12.3944 10.2516 12.3944 10.2588 12.3943 10.266C12.3934 10.4045 12.3924 10.5425 12.3647 10.6769C12.182 11.5588 11.6057 12.0733 10.8105 12.3408C9.92483 12.6386 9.07951 12.5092 8.29104 11.9935C5.41318 10.1104 3.19911 7.59037 1.54688 4.53729C1.25544 3.99886 0.984882 3.44835 0.714358 2.89791C0.639142 2.74486 0.563929 2.59182 0.48827 2.43905C0.439733 2.34179 0.404549 2.23787 0.369325 2.13383C0.353332 2.08659 0.337331 2.03933 0.320068 1.99265V1.63166ZM8.24007 2.2227V3.00712C8.23893 3.17733 8.23937 3.34758 8.23981 3.5178C8.24089 3.93623 8.24197 4.35451 8.21968 4.77177C8.19772 5.19279 7.94522 5.47521 7.55314 5.59809C7.16106 5.72097 6.81564 5.60414 6.55138 5.28586C6.33652 5.0268 6.13656 4.75364 5.94131 4.48008C5.34025 3.63402 4.8925 2.69811 4.50238 1.734C4.39534 1.4689 4.22165 1.35649 3.94641 1.35891C3.51131 1.36305 3.07608 1.36246 2.64088 1.36187C2.31447 1.36143 1.98808 1.36098 1.66176 1.36254C1.23322 1.36455 1.04816 1.66712 1.23518 2.06074C1.4571 2.52688 1.68333 2.99383 1.91622 3.45634C3.52924 6.65406 5.73311 9.30667 8.70743 11.2567C9.27555 11.6289 9.87465 11.7365 10.5145 11.5431C11.0999 11.3662 11.6202 10.936 11.5731 10.1294C11.554 9.80959 11.5625 9.48774 11.571 9.16669L11.571 9.16593C11.5717 9.13938 11.5724 9.11283 11.5731 9.08629C11.5833 8.60283 11.779 8.21888 12.1891 7.97191C12.7698 7.6226 13.4186 7.77449 13.8656 8.35828C14.1232 8.69477 14.3799 9.03209 14.6366 9.36943C15.1457 10.0382 15.6548 10.7071 16.1703 11.3699C16.2569 11.4811 16.4 11.616 16.52 11.6188C17.3849 11.6406 18.251 11.639 19.1163 11.6261C19.3998 11.6221 19.5645 11.3038 19.4457 11.0371C19.4036 10.9542 19.3539 10.8755 19.2975 10.8022C18.4984 9.66336 17.6991 8.5248 16.8995 7.38651C16.4537 6.75116 16.4553 6.24755 16.905 5.60696C17.7119 4.45765 18.5195 3.30875 19.3277 2.16025C19.4492 1.98822 19.5382 1.81659 19.4378 1.60749C19.3324 1.38792 19.1336 1.36092 18.923 1.36133C18.7091 1.36133 18.4951 1.36187 18.2811 1.36242C17.7596 1.36375 17.238 1.36508 16.7164 1.35851C16.4545 1.35528 16.2773 1.44996 16.1416 1.68525C15.8877 2.12524 15.6255 2.56028 15.3633 2.99539L15.363 2.9959C15.2589 3.16861 15.1548 3.34132 15.0513 3.51436C14.6733 4.14609 14.2952 4.77795 13.917 5.40994C13.6402 5.87085 13.2406 6.11178 12.7106 6.06464C12.046 6.00582 11.5774 5.46595 11.5735 4.76613C11.5701 4.19948 11.5707 3.63298 11.5713 3.06645C11.5717 2.66987 11.5721 2.27328 11.5712 1.87662C11.5712 1.54383 11.4179 1.36697 11.1007 1.36495C10.1472 1.35899 9.19371 1.35832 8.24007 1.36295V2.2227Z" fill="white"/>
</svg>
